<svg xmlns="http://www.w3.org/2000/svg" viewBox="0 0 583 431" width="583" height="431">
  <path d="M 30,81 L 30,92 L 34,105 L 49,130 L 64,148 L 83,166 L 92,172 L 94,172 L 97,175 L 98,180 L 105,192 L 118,204 L 139,213 L 156,216 L 185,216 L 200,213 L 208,213 L 209,219 L 208,223 L 195,233 L 182,241 L 179,244 L 178,253 L 163,265 L 155,274 L 154,283 L 150,285 L 144,293 L 144,295 L 148,296 L 146,304 L 147,311 L 147,309 L 151,302 L 160,293 L 165,291 L 169,291 L 171,289 L 173,281 L 177,274 L 190,260 L 196,258 L 201,253 L 213,235 L 215,230 L 230,219 L 244,203 L 247,198 L 255,201 L 238,228 L 232,234 L 217,243 L 212,248 L 210,253 L 211,259 L 192,298 L 191,305 L 194,311 L 193,331 L 191,343 L 184,356 L 183,361 L 188,366 L 190,371 L 190,389 L 188,397 L 185,403 L 190,398 L 194,389 L 197,389 L 203,381 L 207,372 L 207,367 L 210,359 L 210,352 L 207,333 L 207,318 L 210,315 L 213,314 L 216,309 L 218,274 L 220,262 L 227,262 L 225,267 L 224,276 L 224,305 L 228,330 L 237,357 L 249,379 L 257,390 L 268,401 L 275,406 L 288,411 L 294,411 L 302,409 L 315,401 L 329,386 L 340,369 L 346,357 L 355,330 L 359,304 L 359,276 L 357,267 L 358,262 L 365,264 L 365,277 L 368,310 L 369,313 L 371,315 L 373,315 L 377,320 L 377,332 L 374,351 L 374,361 L 377,366 L 377,374 L 379,379 L 387,390 L 384,382 L 385,372 L 390,392 L 393,398 L 399,403 L 395,395 L 393,383 L 394,371 L 395,368 L 400,364 L 400,358 L 394,347 L 391,333 L 390,311 L 393,304 L 392,299 L 378,269 L 374,263 L 372,258 L 373,251 L 372,249 L 363,241 L 352,235 L 342,224 L 332,206 L 327,200 L 334,195 L 344,209 L 353,219 L 369,231 L 369,233 L 382,253 L 388,259 L 391,259 L 404,271 L 410,280 L 413,290 L 416,292 L 424,294 L 433,303 L 437,311 L 438,308 L 437,300 L 434,294 L 436,293 L 440,296 L 440,294 L 438,290 L 430,284 L 429,275 L 420,265 L 416,263 L 406,254 L 405,245 L 401,241 L 398,240 L 376,224 L 375,219 L 378,213 L 394,216 L 423,216 L 443,212 L 462,203 L 473,193 L 480,181 L 482,174 L 499,163 L 524,137 L 541,112 L 546,101 L 549,89 L 549,82 L 540,73 L 529,67 L 514,64 L 495,64 L 480,66 L 456,72 L 427,82 L 413,89 L 406,91 L 334,128 L 334,125 L 337,122 L 340,121 L 360,107 L 368,98 L 376,94 L 394,93 L 399,86 L 408,79 L 414,77 L 421,77 L 419,75 L 404,73 L 408,71 L 414,71 L 407,69 L 393,70 L 387,74 L 383,74 L 360,89 L 356,90 L 349,88 L 347,89 L 331,112 L 330,109 L 332,106 L 332,95 L 326,86 L 317,80 L 314,77 L 314,75 L 319,65 L 328,52 L 344,36 L 354,30 L 362,21 L 362,18 L 359,18 L 355,20 L 329,43 L 319,56 L 312,71 L 308,75 L 306,73 L 294,68 L 288,68 L 274,75 L 271,74 L 267,64 L 254,45 L 229,22 L 223,18 L 220,18 L 220,22 L 226,29 L 240,38 L 250,48 L 261,63 L 268,77 L 253,90 L 250,96 L 250,105 L 253,112 L 262,120 L 277,125 L 266,132 L 262,129 L 259,122 L 249,114 L 234,90 L 219,89 L 201,76 L 197,74 L 193,74 L 189,71 L 183,69 L 172,69 L 168,71 L 173,71 L 177,73 L 163,74 L 160,77 L 168,77 L 173,79 L 181,86 L 186,93 L 197,93 L 208,96 L 215,101 L 223,110 L 243,123 L 246,127 L 245,130 L 207,108 L 199,105 L 170,90 L 138,77 L 108,68 L 84,64 L 64,64 L 53,66 L 45,69 L 38,73 Z" fill="#1c2e27" />
  <path d="M 199,370 L 200,381 L 196,388 L 196,382 Z" fill="white" />
  <path d="M 242,341 L 277,348 L 309,348 L 322,346 L 334,342 L 340,342 L 334,355 L 328,360 L 305,366 L 283,366 L 270,364 L 251,358 L 247,353 Z" fill="white" />
  <path d="M 384,314 L 386,320 L 387,339 L 393,362 L 388,364 L 384,364 L 379,359 L 380,322 L 381,318 Z" fill="white" />
  <path d="M 200,314 L 203,318 L 204,325 L 205,356 L 204,359 L 200,363 L 195,363 L 189,360 L 193,354 L 196,343 Z" fill="white" />
  <path d="M 231,300 L 233,287 L 241,291 L 259,296 L 287,300 L 301,300 L 323,297 L 343,291 L 351,287 L 352,299 L 346,304 L 327,313 L 303,318 L 285,318 L 262,314 L 240,306 Z" fill="white" />
  <path d="M 372,273 L 375,277 L 388,304 L 384,308 L 376,311 L 373,308 L 372,305 L 371,290 Z" fill="white" />
  <path d="M 212,271 L 213,286 L 212,287 L 212,303 L 210,308 L 208,310 L 206,310 L 198,306 L 197,300 Z" fill="white" />
  <path d="M 408,267 L 410,266 L 424,279 L 424,281 L 422,283 L 418,283 Z" fill="white" />
  <path d="M 175,264 L 176,266 L 170,274 L 166,282 L 163,283 L 160,279 L 161,277 Z" fill="white" />
  <path d="M 355,243 L 368,253 L 363,257 L 354,245 Z" fill="white" />
  <path d="M 238,254 L 245,242 L 262,247 L 280,250 L 307,250 L 331,245 L 337,242 L 340,243 L 345,255 L 335,261 L 316,267 L 305,269 L 282,269 L 269,267 L 252,262 L 240,257 Z" fill="white" />
  <path d="M 229,242 L 230,244 L 224,253 L 221,256 L 216,252 Z" fill="white" />
  <path d="M 382,239 L 384,238 L 400,248 L 392,254 L 385,242 Z" fill="white" />
  <path d="M 202,238 L 191,253 L 184,248 L 187,245 Z" fill="white" />
  <path d="M 351,207 L 353,206 L 361,214 L 367,218 L 366,221 L 362,219 Z" fill="white" />
  <path d="M 232,204 L 233,206 L 222,218 L 218,220 L 215,219 Z" fill="white" />
  <path d="M 260,213 L 274,198 L 300,197 L 310,199 L 321,210 L 322,215 L 307,219 L 288,220 L 273,218 L 262,215 Z" fill="white" />
  <path d="M 336,185 L 337,181 L 380,189 L 424,196 L 431,206 L 429,208 L 423,209 L 394,209 L 375,206 L 358,201 L 353,197 L 343,192 Z" fill="white" />
  <path d="M 243,182 L 241,187 L 236,192 L 223,200 L 215,203 L 185,209 L 156,209 L 149,208 L 147,206 L 155,196 L 210,187 L 239,181 Z" fill="white" />
  <path d="M 473,179 L 467,188 L 460,195 L 453,200 L 438,206 L 434,202 L 417,177 L 454,176 L 471,174 Z" fill="white" />
  <path d="M 105,178 L 107,174 L 161,178 L 141,206 L 130,202 L 120,196 L 114,191 Z" fill="white" />
  <path d="M 333,165 L 334,162 L 350,168 L 368,172 L 410,176 L 416,183 L 419,191 L 376,184 L 359,180 L 342,178 L 336,176 Z" fill="white" />
  <path d="M 245,162 L 243,175 L 241,177 L 225,180 L 219,180 L 161,191 L 158,190 L 167,177 L 173,175 L 186,175 L 211,172 L 235,166 Z" fill="white" />
  <path d="M 503,149 L 485,164 L 479,167 L 470,168 L 406,169 L 376,166 L 364,164 L 359,162 L 372,159 L 391,157 L 445,148 L 486,146 Z" fill="white" />
  <path d="M 74,147 L 94,146 L 134,148 L 220,162 L 215,164 L 203,166 L 172,169 L 108,168 L 99,167 L 95,165 L 82,155 Z" fill="white" />
  <path d="M 397,142 L 390,152 L 383,154 L 370,155 L 350,159 L 345,159 L 334,154 L 336,152 L 361,148 L 376,144 L 386,143 L 392,141 Z" fill="white" />
  <path d="M 182,143 L 183,141 L 192,142 L 242,152 L 244,154 L 239,157 L 229,159 L 190,153 Z" fill="white" />
  <path d="M 442,122 L 443,143 L 441,145 L 429,146 L 423,148 L 416,148 L 409,150 L 403,149 Z" fill="white" />
  <path d="M 137,122 L 176,149 L 169,150 L 163,148 L 143,146 L 136,144 L 135,138 Z" fill="white" />
  <path d="M 447,143 L 448,120 L 515,123 L 523,125 L 516,135 L 510,141 L 456,144 Z" fill="white" />
  <path d="M 321,122 L 314,131 L 311,131 L 302,126 L 314,123 L 317,121 Z" fill="white" />
  <path d="M 130,144 L 75,142 L 67,140 L 55,125 L 64,123 L 124,120 L 131,121 Z" fill="white" />
  <path d="M 330,111 L 331,113 L 325,116 Z" fill="white" />
  <path d="M 229,95 L 232,98 L 237,111 L 226,104 L 224,101 Z" fill="white" />
  <path d="M 351,94 L 356,101 L 347,108 L 342,108 Z" fill="white" />
  <path d="M 141,91 L 172,135 L 175,143 L 136,115 L 139,100 L 139,94 Z" fill="white" />
  <path d="M 438,90 L 442,109 L 442,116 L 403,144 L 402,142 Z" fill="white" />
  <path d="M 432,91 L 430,92 L 423,104 L 401,135 L 328,150 L 324,145 L 344,132 L 384,110 L 428,90 Z" fill="white" />
  <path d="M 146,90 L 151,90 L 156,93 L 163,95 L 215,121 L 251,142 L 254,146 L 253,148 L 250,150 L 245,148 L 224,145 L 177,135 Z" fill="white" />
  <path d="M 541,89 L 541,93 L 538,101 L 528,119 L 520,120 L 500,119 L 459,114 L 532,91 L 538,88 Z" fill="white" />
  <path d="M 38,87 L 121,115 L 119,117 L 100,117 L 52,120 L 41,103 L 37,91 Z" fill="white" />
  <path d="M 390,83 L 389,86 L 387,87 L 370,90 L 384,80 L 389,81 Z" fill="white" />
  <path d="M 190,83 L 191,81 L 196,80 L 210,90 L 204,90 L 191,86 Z" fill="white" />
  <path d="M 272,87 L 280,81 L 291,76 L 309,85 L 306,110 L 299,112 L 283,112 L 276,110 L 274,92 Z" fill="white" />
  <path d="M 538,81 L 538,84 L 468,106 L 450,113 L 446,112 L 442,86 L 446,83 L 464,77 L 494,71 L 520,72 L 526,74 Z" fill="white" />
  <path d="M 40,82 L 50,75 L 64,71 L 84,71 L 111,76 L 114,78 L 127,81 L 136,85 L 133,109 L 131,113 L 129,113 L 59,89 L 44,85 Z" fill="white" />
</svg>